<svg width="80" height="14" viewBox="0 0 80 14" fill="none" xmlns="http://www.w3.org/2000/svg">
<rect width="80" height="14" fill="white"/>
<path d="M67.9863 12.4648C67.8652 12.375 67.791 12.2539 67.7637 12.1016C67.7402 11.9492 67.7656 11.7676 67.8398 11.5566L69.0645 7.91211L65.9355 5.66211C65.752 5.5332 65.625 5.40039 65.5547 5.26367C65.4844 5.12695 65.4727 4.98633 65.5195 4.8418C65.5664 4.70117 65.6582 4.5957 65.7949 4.52539C65.9316 4.45508 66.1133 4.42188 66.3398 4.42578L70.1777 4.44922L71.3438 0.787109C71.4141 0.572266 71.502 0.410156 71.6074 0.300781C71.7168 0.191406 71.8457 0.136719 71.9941 0.136719C72.1465 0.136719 72.2754 0.191406 72.3809 0.300781C72.4902 0.410156 72.5801 0.572266 72.6504 0.787109L73.8164 4.44922L77.6543 4.42578C77.8809 4.42188 78.0625 4.45508 78.1992 4.52539C78.3359 4.5957 78.4277 4.70117 78.4746 4.8418C78.5215 4.98633 78.5098 5.12695 78.4395 5.26367C78.3691 5.40039 78.2422 5.5332 78.0586 5.66211L74.9297 7.91211L76.1543 11.5566C76.2285 11.7676 76.252 11.9492 76.2246 12.1016C76.2012 12.2539 76.1289 12.375 76.0078 12.4648C75.8867 12.5586 75.75 12.5898 75.5977 12.5586C75.4453 12.5312 75.2793 12.4531 75.0996 12.3242L71.9941 10.0449L68.8945 12.3242C68.7148 12.4531 68.5488 12.5312 68.3965 12.5586C68.2441 12.5898 68.1074 12.5586 67.9863 12.4648ZM68.8301 11.3047C68.8379 11.3164 68.8555 11.3125 68.8828 11.293L71.7012 9.14258C71.7949 9.06836 71.8926 9.03125 71.9941 9.03125C72.0996 9.03125 72.1992 9.06836 72.293 9.14258L75.1113 11.293C75.1387 11.3125 75.1562 11.3164 75.1641 11.3047C75.168 11.2969 75.168 11.2793 75.1641 11.252L73.998 7.90039C73.9707 7.82617 73.957 7.75586 73.957 7.68945C73.9609 7.62305 73.9805 7.5625 74.0156 7.50781C74.0508 7.44922 74.1016 7.39648 74.168 7.34961L77.0859 5.33398C77.1133 5.31836 77.123 5.30273 77.1152 5.28711C77.1113 5.27539 77.0938 5.26953 77.0625 5.26953L73.5176 5.33398C73.3965 5.33789 73.2969 5.31445 73.2188 5.26367C73.1406 5.20898 73.084 5.12109 73.0488 5L72.0293 1.60742C72.0215 1.57617 72.0098 1.56055 71.9941 1.56055C71.9824 1.56055 71.9727 1.57617 71.9648 1.60742L70.9453 5C70.9102 5.12109 70.8535 5.20898 70.7754 5.26367C70.6973 5.31445 70.5977 5.33789 70.4766 5.33398L66.9316 5.26953C66.9004 5.26953 66.8828 5.27539 66.8789 5.28711C66.8711 5.30273 66.8809 5.31836 66.9082 5.33398L69.8262 7.34961C69.8926 7.39648 69.9434 7.44922 69.9785 7.50781C70.0137 7.5625 70.0312 7.62305 70.0312 7.68945C70.0352 7.75586 70.0234 7.82617 69.9961 7.90039L68.8301 11.252C68.8223 11.2793 68.8223 11.2969 68.8301 11.3047Z" fill="white"/>
<path d="M67.9863 12.4648L68.17 12.2276L68.1651 12.2239L67.9863 12.4648ZM67.7637 12.1016L67.4671 12.1472L67.4684 12.1546L67.7637 12.1016ZM67.8398 11.5566L68.1229 11.6562L68.1242 11.6522L67.8398 11.5566ZM69.0645 7.91211L69.3488 8.00766L69.4193 7.7978L69.2396 7.66855L69.0645 7.91211ZM65.9355 5.66211L66.1107 5.41853L66.1079 5.41659L65.9355 5.66211ZM65.5195 4.8418L65.2349 4.74693L65.2342 4.74925L65.5195 4.8418ZM66.3398 4.42578L66.3347 4.72576L66.338 4.72578L66.3398 4.42578ZM70.1777 4.44922L70.1759 4.74921L70.3966 4.75056L70.4636 4.54024L70.1777 4.44922ZM71.3438 0.787109L71.0586 0.693795L71.0579 0.696092L71.3438 0.787109ZM71.6074 0.300781L71.3953 0.0886141L71.3915 0.0925406L71.6074 0.300781ZM72.3809 0.300781L72.1649 0.509056L72.1687 0.512913L72.3809 0.300781ZM72.6504 0.787109L72.9363 0.696089L72.9355 0.693798L72.6504 0.787109ZM73.8164 4.44922L73.5305 4.54024L73.5975 4.75056L73.8182 4.74921L73.8164 4.44922ZM77.6543 4.42578L77.6561 4.72579L77.6595 4.72574L77.6543 4.42578ZM78.4746 4.8418L78.76 4.74924L78.7592 4.74693L78.4746 4.8418ZM78.0586 5.66211L77.8862 5.41657L77.8834 5.41855L78.0586 5.66211ZM74.9297 7.91211L74.7545 7.66855L74.5748 7.7978L74.6453 8.00766L74.9297 7.91211ZM76.1543 11.5566L75.8699 11.6522L75.8713 11.6562L76.1543 11.5566ZM76.2246 12.1016L75.9292 12.0485L75.9281 12.0559L76.2246 12.1016ZM76.0078 12.4648L75.829 12.2239L75.8242 12.2276L76.0078 12.4648ZM75.5977 12.5586L75.658 12.2646L75.6507 12.2633L75.5977 12.5586ZM75.0996 12.3242L74.9221 12.5661L74.9247 12.568L75.0996 12.3242ZM71.9941 10.0449L72.1716 9.80307L71.994 9.67267L71.8164 9.80323L71.9941 10.0449ZM68.8945 12.3242L69.0694 12.568L69.0723 12.5659L68.8945 12.3242ZM68.3965 12.5586L68.3435 12.2632L68.3362 12.2647L68.3965 12.5586ZM68.8301 11.3047L69.0797 11.1383L69.0632 11.1136L69.0422 11.0926L68.8301 11.3047ZM68.8828 11.293L69.0573 11.5372L69.0648 11.5315L68.8828 11.293ZM71.7012 9.14258L71.8832 9.38112L71.8874 9.37779L71.7012 9.14258ZM72.293 9.14258L72.1067 9.37783L72.111 9.38108L72.293 9.14258ZM75.1113 11.293L74.9293 11.5316L74.937 11.5371L75.1113 11.293ZM75.1641 11.3047L75.4137 11.4711L75.424 11.4556L75.4324 11.4389L75.1641 11.3047ZM75.1641 11.252L75.461 11.2095L75.4569 11.1808L75.4474 11.1534L75.1641 11.252ZM73.998 7.90039L74.2814 7.8018L74.2795 7.79668L73.998 7.90039ZM73.957 7.68945L73.6575 7.67184L73.657 7.68064V7.68945H73.957ZM74.0156 7.50781L74.2681 7.67012L74.2729 7.66216L74.0156 7.50781ZM74.168 7.34961L73.9975 7.10276L73.995 7.10452L74.168 7.34961ZM77.0859 5.33398L76.9371 5.07351L76.926 5.07987L76.9154 5.08715L77.0859 5.33398ZM77.1152 5.28711L76.8306 5.38198L76.8374 5.4022L76.8469 5.42127L77.1152 5.28711ZM77.0625 5.26953V4.96948L77.057 4.96958L77.0625 5.26953ZM73.5176 5.33398L73.5121 5.034L73.5079 5.03414L73.5176 5.33398ZM73.2188 5.26367L73.0466 5.50959L73.0553 5.5152L73.2188 5.26367ZM73.0488 5L73.3369 4.91635L73.3361 4.91366L73.0488 5ZM72.0293 1.60742L71.7379 1.68026L71.742 1.69376L72.0293 1.60742ZM71.9648 1.60742L72.2525 1.69386L72.2559 1.68018L71.9648 1.60742ZM70.9453 5L70.658 4.91366L70.6572 4.91636L70.9453 5ZM70.7754 5.26367L70.939 5.51535L70.9474 5.50944L70.7754 5.26367ZM70.4766 5.33398L70.4862 5.03411L70.482 5.03403L70.4766 5.33398ZM66.9316 5.26953L66.9371 4.96953H66.9316V5.26953ZM66.8789 5.28711L67.1472 5.42127L67.1568 5.4022L67.1635 5.38198L66.8789 5.28711ZM66.9082 5.33398L67.0787 5.08715L67.0682 5.07987L67.057 5.07351L66.9082 5.33398ZM69.8262 7.34961L69.9992 7.10451L69.9967 7.10277L69.8262 7.34961ZM69.9785 7.50781L69.7211 7.66224L69.7262 7.67004L69.9785 7.50781ZM70.0312 7.68945H69.7312V7.69827L69.7318 7.70707L70.0312 7.68945ZM69.9961 7.90039L69.7145 7.79666L69.7128 7.80182L69.9961 7.90039ZM68.8301 11.252L68.5467 11.1534L68.544 11.1614L68.5416 11.1695L68.8301 11.252ZM68.1651 12.2239C68.1071 12.1809 68.0732 12.1279 68.059 12.0486L67.4684 12.1546C67.5088 12.3799 67.6233 12.5691 67.8076 12.7058L68.1651 12.2239ZM68.0602 12.0559C68.0469 11.9694 68.0581 11.8402 68.1228 11.6562L67.5569 11.4571C67.4731 11.695 67.4336 11.929 67.4672 12.1472L68.0602 12.0559ZM68.1242 11.6522L69.3488 8.00766L68.7801 7.81656L67.5555 11.4611L68.1242 11.6522ZM69.2396 7.66855L66.1107 5.41855L65.7604 5.90567L68.8893 8.15567L69.2396 7.66855ZM66.1079 5.41659C65.9472 5.3037 65.8617 5.20469 65.8215 5.12647L65.2879 5.40088C65.3883 5.5961 65.5567 5.76271 65.7632 5.90763L66.1079 5.41659ZM65.8215 5.12647C65.7872 5.05986 65.783 5.00187 65.8049 4.93435L65.2342 4.74925C65.1623 4.97079 65.1815 5.19405 65.2879 5.40088L65.8215 5.12647ZM65.8041 4.93667C65.8252 4.87342 65.8622 4.82812 65.9321 4.79218L65.6577 4.2586C65.4542 4.36328 65.3076 4.52892 65.2349 4.74693L65.8041 4.93667ZM65.9321 4.79218C66.0089 4.75269 66.1359 4.72231 66.3347 4.72574L66.345 4.12583C66.0907 4.12144 65.8544 4.15747 65.6577 4.2586L65.9321 4.79218ZM66.338 4.72578L70.1759 4.74921L70.1796 4.14922L66.3417 4.12579L66.338 4.72578ZM70.4636 4.54024L71.6296 0.878127L71.0579 0.696092L69.8919 4.3582L70.4636 4.54024ZM71.6289 0.880421C71.6914 0.689377 71.7609 0.573827 71.8234 0.509022L71.3915 0.0925406C71.243 0.246485 71.1367 0.455155 71.0586 0.693798L71.6289 0.880421ZM71.8196 0.512913C71.8753 0.457161 71.9289 0.436719 71.9941 0.436719V-0.163281C71.7625 -0.163281 71.5583 -0.0743485 71.3953 0.0886492L71.8196 0.512913ZM71.9941 0.436719C72.0653 0.436719 72.1161 0.458458 72.1649 0.509022L72.5968 0.0925406C72.4346 -0.0756456 72.2277 -0.163281 71.9941 -0.163281V0.436719ZM72.1687 0.512913C72.233 0.577169 72.3034 0.691236 72.3653 0.880421L72.9355 0.693798C72.8568 0.453295 72.7475 0.243143 72.593 0.0886492L72.1687 0.512913ZM72.3645 0.878127L73.5305 4.54024L74.1023 4.3582L72.9363 0.696092L72.3645 0.878127ZM73.8182 4.74921L77.6561 4.72578L77.6525 4.12579L73.8146 4.14922L73.8182 4.74921ZM77.6595 4.72574C77.8583 4.72231 77.9852 4.75269 78.062 4.79218L78.3364 4.2586C78.1398 4.15747 77.9034 4.12144 77.6491 4.12583L77.6595 4.72574ZM78.062 4.79218C78.1319 4.82812 78.1689 4.87342 78.19 4.93667L78.7592 4.74693C78.6865 4.52892 78.54 4.36328 78.3364 4.2586L78.062 4.79218ZM78.1892 4.93435C78.2111 5.00187 78.2069 5.05986 78.1727 5.12647L78.7062 5.40088C78.8126 5.19405 78.8318 4.97079 78.76 4.74925L78.1892 4.93435ZM78.1727 5.12647C78.1324 5.20469 78.047 5.3037 77.8862 5.41659L78.231 5.90763C78.4374 5.76271 78.6058 5.5961 78.7062 5.40088L78.1727 5.12647ZM77.8834 5.41855L74.7545 7.66855L75.1048 8.15567L78.2337 5.90567L77.8834 5.41855ZM74.6453 8.00766L75.8699 11.6522L76.4387 11.4611L75.2141 7.81656L74.6453 8.00766ZM75.8713 11.6562C75.9355 11.8386 75.9443 11.965 75.9293 12.0486L76.5199 12.1546C76.5596 11.9334 76.5215 11.6965 76.4373 11.4571L75.8713 11.6562ZM75.9281 12.0559C75.9164 12.1322 75.8852 12.1823 75.8291 12.2239L76.1866 12.7058C76.3727 12.5677 76.486 12.3756 76.5211 12.1472L75.9281 12.0559ZM75.8242 12.2276C75.7735 12.2669 75.7261 12.2787 75.6579 12.2647L75.5374 12.8525C75.7739 12.901 76 12.8503 76.1915 12.7021L75.8242 12.2276ZM75.6507 12.2633C75.5569 12.2465 75.4323 12.1937 75.2745 12.0805L74.9247 12.568C75.1262 12.7125 75.3337 12.816 75.5447 12.8539L75.6507 12.2633ZM75.2771 12.0824L72.1716 9.80307L71.8166 10.2868L74.9221 12.5661L75.2771 12.0824ZM71.8164 9.80323L68.7168 12.0825L69.0723 12.5659L72.1719 10.2866L71.8164 9.80323ZM68.7197 12.0805C68.5618 12.1937 68.4372 12.2465 68.3435 12.2633L68.4495 12.8539C68.6605 12.816 68.8679 12.7125 69.0694 12.568L68.7197 12.0805ZM68.3362 12.2647C68.268 12.2787 68.2207 12.2669 68.17 12.2276L67.8027 12.7021C67.9942 12.8503 68.2203 12.901 68.4568 12.8525L68.3362 12.2647ZM68.5805 11.4711C68.6183 11.5278 68.6761 11.5747 68.7495 11.5973C68.817 11.618 68.8764 11.6118 68.9142 11.6034C68.9831 11.5881 69.0342 11.5535 69.0572 11.5371L68.7084 11.0488C68.7095 11.0481 68.7154 11.0439 68.7254 11.0387C68.7344 11.034 68.7548 11.0242 68.784 11.0177C68.8131 11.0112 68.8649 11.005 68.926 11.0238C68.993 11.0444 69.0458 11.0874 69.0797 11.1383L68.5805 11.4711ZM69.0648 11.5315L71.8831 9.38108L71.5192 8.90407L68.7008 11.0545L69.0648 11.5315ZM71.8874 9.37779C71.9379 9.33778 71.9717 9.33125 71.9941 9.33125V8.73125C71.8135 8.73125 71.6519 8.79894 71.515 8.90736L71.8874 9.37779ZM71.9941 9.33125C72.0231 9.33125 72.0585 9.33962 72.1068 9.37779L72.4792 8.90736C72.3399 8.7971 72.1761 8.73125 71.9941 8.73125V9.33125ZM72.111 9.38108L74.9294 11.5315L75.2933 11.0545L72.4749 8.90407L72.111 9.38108ZM74.937 11.5371C74.9599 11.5535 75.011 11.5881 75.0799 11.6034C75.1178 11.6118 75.1771 11.618 75.2446 11.5973C75.318 11.5747 75.3759 11.5278 75.4137 11.4711L74.9144 11.1383C74.9483 11.0874 75.0011 11.0444 75.0681 11.0238C75.1293 11.005 75.1811 11.0112 75.2101 11.0177C75.2394 11.0242 75.2598 11.034 75.2688 11.0387C75.2788 11.0439 75.2846 11.0481 75.2857 11.0488L74.937 11.5371ZM75.4324 11.4389C75.4673 11.3691 75.467 11.303 75.467 11.2856C75.467 11.257 75.464 11.2303 75.461 11.2095L74.8671 11.2944C74.868 11.301 74.867 11.2967 74.867 11.2856C74.867 11.2799 74.8672 11.2677 74.8697 11.2514C74.872 11.2368 74.8779 11.2062 74.8957 11.1705L75.4324 11.4389ZM75.4474 11.1534L74.2814 7.80182L73.7147 7.99897L74.8807 11.3505L75.4474 11.1534ZM74.2795 7.79668C74.2622 7.74948 74.257 7.71442 74.257 7.68945H73.657C73.657 7.79729 73.6792 7.90286 73.7165 8.0041L74.2795 7.79668ZM74.2565 7.70707C74.2575 7.69087 74.2614 7.68033 74.268 7.67004L73.7633 7.34559C73.6996 7.44467 73.6644 7.55523 73.6575 7.67184L74.2565 7.70707ZM74.2729 7.66216C74.2829 7.64547 74.3023 7.622 74.341 7.5947L73.995 7.10452C73.9008 7.17096 73.8187 7.25297 73.7584 7.35346L74.2729 7.66216ZM74.3385 7.59645L77.2564 5.58082L76.9154 5.08715L73.9975 7.10277L74.3385 7.59645ZM77.2348 5.59446C77.2649 5.57727 77.3245 5.53937 77.3682 5.46955C77.4248 5.379 77.4372 5.26028 77.3836 5.15295L76.8469 5.42127C76.828 5.38347 76.815 5.33495 76.8184 5.28011C76.8218 5.22611 76.8401 5.18244 76.8594 5.15155C76.8932 5.09735 76.9344 5.07508 76.9371 5.07351L77.2348 5.59446ZM77.3998 5.19224C77.3554 5.0588 77.2459 5.00664 77.194 4.98932C77.1407 4.97156 77.0914 4.96953 77.0625 4.96953V5.56953C77.0614 5.56953 77.0561 5.5695 77.0476 5.56849C77.0397 5.56754 77.0241 5.56516 77.0043 5.55853C76.9699 5.54708 76.8712 5.5037 76.8306 5.38198L77.3998 5.19224ZM77.057 4.96958L73.5121 5.03403L73.523 5.63393L77.068 5.56948L77.057 4.96958ZM73.5079 5.03414C73.4298 5.03666 73.3955 5.02074 73.3822 5.01214L73.0553 5.5152C73.1983 5.60816 73.3631 5.63912 73.5273 5.63383L73.5079 5.03414ZM73.3908 5.0179C73.3845 5.0135 73.3592 4.99302 73.3369 4.91636L72.7607 5.08364C72.8088 5.24916 72.8968 5.40447 73.0467 5.50944L73.3908 5.0179ZM73.3361 4.91366L72.3166 1.52108L71.742 1.69376L72.7615 5.08634L73.3361 4.91366ZM72.3203 1.53466C72.3122 1.50221 72.2951 1.44623 72.2546 1.39227C72.2078 1.32986 72.1198 1.26055 71.9941 1.26055V1.86055C71.8841 1.86055 71.8097 1.79905 71.7746 1.75227C71.7459 1.71393 71.7386 1.68138 71.7383 1.68018L72.3203 1.53466ZM71.9941 1.26055C71.8351 1.26055 71.7504 1.37046 71.7236 1.41327C71.6941 1.46049 71.6805 1.50774 71.6738 1.53466L72.2559 1.68018C72.2558 1.68046 72.2547 1.68494 72.252 1.69225C72.2495 1.69895 72.2436 1.71341 72.2324 1.73127C72.2154 1.75844 72.1415 1.86055 71.9941 1.86055V1.26055ZM71.6775 1.52108L70.658 4.91366L71.2326 5.08634L72.2522 1.69376L71.6775 1.52108ZM70.6572 4.91636C70.635 4.99302 70.6096 5.0135 70.6034 5.0179L70.9474 5.50944C71.0974 5.40447 71.1854 5.24916 71.2334 5.08364L70.6572 4.91636ZM70.6119 5.01214C70.5987 5.02074 70.5643 5.03666 70.4862 5.03414L70.4669 5.63383C70.631 5.63912 70.7959 5.60816 70.9389 5.5152L70.6119 5.01214ZM70.482 5.03403L66.9371 4.96958L66.9262 5.56948L70.4711 5.63393L70.482 5.03403ZM66.9316 4.96953C66.9027 4.96953 66.8534 4.97156 66.8002 4.98932C66.7482 5.00664 66.6388 5.0588 66.5943 5.19224L67.1635 5.38198C67.1229 5.5037 67.0243 5.54708 66.9899 5.55853C66.97 5.56516 66.9544 5.56754 66.9465 5.56849C66.9381 5.5695 66.9327 5.56953 66.9316 5.56953V4.96953ZM66.6106 5.15295C66.5569 5.26028 66.5694 5.379 66.626 5.46955C66.6696 5.53937 66.7293 5.57727 66.7594 5.59446L67.057 5.07351C67.0598 5.07508 67.1009 5.09735 67.1348 5.15155C67.1541 5.18244 67.1724 5.22611 67.1758 5.28011C67.1792 5.33495 67.1661 5.38347 67.1472 5.42127L66.6106 5.15295ZM66.7377 5.58082L69.6557 7.59645L69.9967 7.10277L67.0787 5.08715L66.7377 5.58082ZM69.6532 7.5947C69.6918 7.622 69.7113 7.64547 69.7213 7.66216L70.2358 7.35346C70.1755 7.25297 70.0933 7.17096 69.9992 7.10452L69.6532 7.5947ZM69.7262 7.67004C69.7295 7.67525 69.7312 7.67927 69.7312 7.68945H70.3313C70.3313 7.56683 70.2978 7.44975 70.2309 7.34559L69.7262 7.67004ZM69.7318 7.70707C69.7328 7.72519 69.7303 7.75402 69.7146 7.79668L70.2776 8.0041C70.3166 7.89832 70.3375 7.78653 70.3307 7.67184L69.7318 7.70707ZM69.7128 7.80182L68.5467 11.1534L69.1134 11.3505L70.2794 7.99897L69.7128 7.80182ZM68.5416 11.1695C68.5342 11.1957 68.5242 11.2372 68.5242 11.2856C68.5242 11.3286 68.5323 11.4311 68.6179 11.5168L69.0422 11.0926C69.1201 11.1704 69.1242 11.2602 69.1242 11.2856C69.1242 11.3027 69.1224 11.3154 69.1212 11.322C69.12 11.3291 69.1188 11.3334 69.1185 11.3344L68.5416 11.1695Z" fill="#FE8208"/>
<path d="M51.9863 12.4648C51.8652 12.375 51.791 12.2539 51.7637 12.1016C51.7402 11.9492 51.7656 11.7676 51.8398 11.5566L53.0645 7.91211L49.9355 5.66211C49.752 5.5332 49.625 5.40039 49.5547 5.26367C49.4844 5.12695 49.4727 4.98633 49.5195 4.8418C49.5664 4.70117 49.6582 4.5957 49.7949 4.52539C49.9316 4.45508 50.1133 4.42188 50.3398 4.42578L54.1777 4.44922L55.3438 0.787109C55.4141 0.572266 55.502 0.410156 55.6074 0.300781C55.7168 0.191406 55.8457 0.136719 55.9941 0.136719C56.1465 0.136719 56.2754 0.191406 56.3809 0.300781C56.4902 0.410156 56.5801 0.572266 56.6504 0.787109L57.8164 4.44922L61.6543 4.42578C61.8809 4.42188 62.0625 4.45508 62.1992 4.52539C62.3359 4.5957 62.4277 4.70117 62.4746 4.8418C62.5215 4.98633 62.5098 5.12695 62.4395 5.26367C62.3691 5.40039 62.2422 5.5332 62.0586 5.66211L58.9297 7.91211L60.1543 11.5566C60.2285 11.7676 60.252 11.9492 60.2246 12.1016C60.2012 12.2539 60.1289 12.375 60.0078 12.4648C59.8867 12.5586 59.75 12.5898 59.5977 12.5586C59.4453 12.5312 59.2793 12.4531 59.0996 12.3242L55.9941 10.0449L52.8945 12.3242C52.7148 12.4531 52.5488 12.5312 52.3965 12.5586C52.2441 12.5898 52.1074 12.5586 51.9863 12.4648ZM52.8301 11.3047C52.8379 11.3164 52.8555 11.3125 52.8828 11.293L55.7012 9.14258C55.7949 9.06836 55.8926 9.03125 55.9941 9.03125C56.0996 9.03125 56.1992 9.06836 56.293 9.14258L59.1113 11.293C59.1387 11.3125 59.1562 11.3164 59.1641 11.3047C59.168 11.2969 59.168 11.2793 59.1641 11.252L57.998 7.90039C57.9707 7.82617 57.957 7.75586 57.957 7.68945C57.9609 7.62305 57.9805 7.5625 58.0156 7.50781C58.0508 7.44922 58.1016 7.39648 58.168 7.34961L61.0859 5.33398C61.1133 5.31836 61.123 5.30273 61.1152 5.28711C61.1113 5.27539 61.0938 5.26953 61.0625 5.26953L57.5176 5.33398C57.3965 5.33789 57.2969 5.31445 57.2188 5.26367C57.1406 5.20898 57.084 5.12109 57.0488 5L56.0293 1.60742C56.0215 1.57617 56.0098 1.56055 55.9941 1.56055C55.9824 1.56055 55.9727 1.57617 55.9648 1.60742L54.9453 5C54.9102 5.12109 54.8535 5.20898 54.7754 5.26367C54.6973 5.31445 54.5977 5.33789 54.4766 5.33398L50.9316 5.26953C50.9004 5.26953 50.8828 5.27539 50.8789 5.28711C50.8711 5.30273 50.8809 5.31836 50.9082 5.33398L53.8262 7.34961C53.8926 7.39648 53.9434 7.44922 53.9785 7.50781C54.0137 7.5625 54.0312 7.62305 54.0312 7.68945C54.0352 7.75586 54.0234 7.82617 53.9961 7.90039L52.8301 11.252C52.8223 11.2793 52.8223 11.2969 52.8301 11.3047Z" fill="white"/>
<path d="M51.9863 12.4648L52.17 12.2276L52.1651 12.2239L51.9863 12.4648ZM51.7637 12.1016L51.4671 12.1472L51.4684 12.1546L51.7637 12.1016ZM51.8398 11.5566L52.1229 11.6562L52.1242 11.6522L51.8398 11.5566ZM53.0645 7.91211L53.3488 8.00766L53.4193 7.7978L53.2396 7.66855L53.0645 7.91211ZM49.9355 5.66211L50.1107 5.41853L50.1079 5.41659L49.9355 5.66211ZM49.5195 4.8418L49.2349 4.74693L49.2342 4.74925L49.5195 4.8418ZM50.3398 4.42578L50.3347 4.72576L50.338 4.72578L50.3398 4.42578ZM54.1777 4.44922L54.1759 4.74921L54.3966 4.75056L54.4636 4.54024L54.1777 4.44922ZM55.3438 0.787109L55.0586 0.693795L55.0579 0.696092L55.3438 0.787109ZM55.6074 0.300781L55.3953 0.0886141L55.3915 0.0925406L55.6074 0.300781ZM56.3809 0.300781L56.1649 0.509056L56.1687 0.512913L56.3809 0.300781ZM56.6504 0.787109L56.9363 0.696089L56.9355 0.693798L56.6504 0.787109ZM57.8164 4.44922L57.5305 4.54024L57.5975 4.75056L57.8182 4.74921L57.8164 4.44922ZM61.6543 4.42578L61.6561 4.72579L61.6595 4.72574L61.6543 4.42578ZM62.4746 4.8418L62.76 4.74924L62.7592 4.74693L62.4746 4.8418ZM62.0586 5.66211L61.8862 5.41657L61.8834 5.41855L62.0586 5.66211ZM58.9297 7.91211L58.7545 7.66855L58.5748 7.7978L58.6453 8.00766L58.9297 7.91211ZM60.1543 11.5566L59.8699 11.6522L59.8713 11.6562L60.1543 11.5566ZM60.2246 12.1016L59.9292 12.0485L59.9281 12.0559L60.2246 12.1016ZM60.0078 12.4648L59.829 12.2239L59.8242 12.2276L60.0078 12.4648ZM59.5977 12.5586L59.658 12.2646L59.6507 12.2633L59.5977 12.5586ZM59.0996 12.3242L58.9221 12.5661L58.9247 12.568L59.0996 12.3242ZM55.9941 10.0449L56.1716 9.80307L55.994 9.67267L55.8164 9.80323L55.9941 10.0449ZM52.8945 12.3242L53.0694 12.568L53.0723 12.5659L52.8945 12.3242ZM52.3965 12.5586L52.3435 12.2632L52.3362 12.2647L52.3965 12.5586ZM52.8301 11.3047L53.0797 11.1383L53.0632 11.1136L53.0422 11.0926L52.8301 11.3047ZM52.8828 11.293L53.0573 11.5372L53.0648 11.5315L52.8828 11.293ZM55.7012 9.14258L55.8832 9.38112L55.8874 9.37779L55.7012 9.14258ZM56.293 9.14258L56.1067 9.37783L56.111 9.38108L56.293 9.14258ZM59.1113 11.293L58.9293 11.5316L58.937 11.5371L59.1113 11.293ZM59.1641 11.3047L59.4137 11.4711L59.424 11.4556L59.4324 11.4389L59.1641 11.3047ZM59.1641 11.252L59.461 11.2095L59.4569 11.1808L59.4474 11.1534L59.1641 11.252ZM57.998 7.90039L58.2814 7.8018L58.2795 7.79668L57.998 7.90039ZM57.957 7.68945L57.6575 7.67184L57.657 7.68064V7.68945H57.957ZM58.0156 7.50781L58.2681 7.67012L58.2729 7.66216L58.0156 7.50781ZM58.168 7.34961L57.9975 7.10276L57.995 7.10452L58.168 7.34961ZM61.0859 5.33398L60.9371 5.07351L60.926 5.07987L60.9154 5.08715L61.0859 5.33398ZM61.1152 5.28711L60.8306 5.38198L60.8374 5.4022L60.8469 5.42127L61.1152 5.28711ZM61.0625 5.26953V4.96948L61.057 4.96958L61.0625 5.26953ZM57.5176 5.33398L57.5121 5.034L57.5079 5.03414L57.5176 5.33398ZM57.2188 5.26367L57.0466 5.50959L57.0553 5.5152L57.2188 5.26367ZM57.0488 5L57.3369 4.91635L57.3361 4.91366L57.0488 5ZM56.0293 1.60742L55.7379 1.68026L55.742 1.69376L56.0293 1.60742ZM55.9648 1.60742L56.2525 1.69386L56.2559 1.68018L55.9648 1.60742ZM54.9453 5L54.658 4.91366L54.6572 4.91636L54.9453 5ZM54.7754 5.26367L54.939 5.51535L54.9474 5.50944L54.7754 5.26367ZM54.4766 5.33398L54.4862 5.03411L54.482 5.03403L54.4766 5.33398ZM50.9316 5.26953L50.9371 4.96953H50.9316V5.26953ZM50.8789 5.28711L51.1472 5.42127L51.1568 5.4022L51.1635 5.38198L50.8789 5.28711ZM50.9082 5.33398L51.0787 5.08715L51.0682 5.07987L51.057 5.07351L50.9082 5.33398ZM53.8262 7.34961L53.9992 7.10451L53.9967 7.10277L53.8262 7.34961ZM53.9785 7.50781L53.7211 7.66224L53.7262 7.67004L53.9785 7.50781ZM54.0312 7.68945H53.7312V7.69827L53.7318 7.70707L54.0312 7.68945ZM53.9961 7.90039L53.7145 7.79666L53.7128 7.80182L53.9961 7.90039ZM52.8301 11.252L52.5467 11.1534L52.544 11.1614L52.5416 11.1695L52.8301 11.252ZM52.1651 12.2239C52.1071 12.1809 52.0732 12.1279 52.059 12.0486L51.4684 12.1546C51.5088 12.3799 51.6233 12.5691 51.8076 12.7058L52.1651 12.2239ZM52.0602 12.0559C52.0469 11.9694 52.0581 11.8402 52.1228 11.6562L51.5569 11.4571C51.4731 11.695 51.4336 11.929 51.4672 12.1472L52.0602 12.0559ZM52.1242 11.6522L53.3488 8.00766L52.7801 7.81656L51.5555 11.4611L52.1242 11.6522ZM53.2396 7.66855L50.1107 5.41855L49.7604 5.90567L52.8893 8.15567L53.2396 7.66855ZM50.1079 5.41659C49.9472 5.3037 49.8617 5.20469 49.8215 5.12647L49.2879 5.40088C49.3883 5.5961 49.5567 5.76271 49.7632 5.90763L50.1079 5.41659ZM49.8215 5.12647C49.7872 5.05986 49.783 5.00187 49.8049 4.93435L49.2342 4.74925C49.1623 4.97079 49.1815 5.19405 49.2879 5.40088L49.8215 5.12647ZM49.8041 4.93667C49.8252 4.87342 49.8622 4.82812 49.9321 4.79218L49.6577 4.2586C49.4542 4.36328 49.3076 4.52892 49.2349 4.74693L49.8041 4.93667ZM49.9321 4.79218C50.0089 4.75269 50.1359 4.72231 50.3347 4.72574L50.345 4.12583C50.0907 4.12144 49.8544 4.15747 49.6577 4.2586L49.9321 4.79218ZM50.338 4.72578L54.1759 4.74921L54.1796 4.14922L50.3417 4.12579L50.338 4.72578ZM54.4636 4.54024L55.6296 0.878127L55.0579 0.696092L53.8919 4.3582L54.4636 4.54024ZM55.6289 0.880421C55.6914 0.689377 55.7609 0.573827 55.8234 0.509022L55.3915 0.0925406C55.243 0.246485 55.1367 0.455155 55.0586 0.693798L55.6289 0.880421ZM55.8196 0.512913C55.8753 0.457161 55.9289 0.436719 55.9941 0.436719V-0.163281C55.7625 -0.163281 55.5583 -0.0743485 55.3953 0.0886492L55.8196 0.512913ZM55.9941 0.436719C56.0653 0.436719 56.1161 0.458458 56.1649 0.509022L56.5968 0.0925406C56.4346 -0.0756456 56.2277 -0.163281 55.9941 -0.163281V0.436719ZM56.1687 0.512913C56.233 0.577169 56.3034 0.691236 56.3653 0.880421L56.9355 0.693798C56.8568 0.453295 56.7475 0.243143 56.593 0.0886492L56.1687 0.512913ZM56.3645 0.878127L57.5305 4.54024L58.1023 4.3582L56.9363 0.696092L56.3645 0.878127ZM57.8182 4.74921L61.6561 4.72578L61.6525 4.12579L57.8146 4.14922L57.8182 4.74921ZM61.6595 4.72574C61.8583 4.72231 61.9852 4.75269 62.062 4.79218L62.3364 4.2586C62.1398 4.15747 61.9034 4.12144 61.6491 4.12583L61.6595 4.72574ZM62.062 4.79218C62.1319 4.82812 62.1689 4.87342 62.19 4.93667L62.7592 4.74693C62.6865 4.52892 62.54 4.36328 62.3364 4.2586L62.062 4.79218ZM62.1892 4.93435C62.2111 5.00187 62.2069 5.05986 62.1727 5.12647L62.7062 5.40088C62.8126 5.19405 62.8318 4.97079 62.76 4.74925L62.1892 4.93435ZM62.1727 5.12647C62.1324 5.20469 62.047 5.3037 61.8862 5.41659L62.231 5.90763C62.4374 5.76271 62.6058 5.5961 62.7062 5.40088L62.1727 5.12647ZM61.8834 5.41855L58.7545 7.66855L59.1048 8.15567L62.2337 5.90567L61.8834 5.41855ZM58.6453 8.00766L59.8699 11.6522L60.4387 11.4611L59.2141 7.81656L58.6453 8.00766ZM59.8713 11.6562C59.9355 11.8386 59.9443 11.965 59.9293 12.0486L60.5199 12.1546C60.5596 11.9334 60.5215 11.6965 60.4373 11.4571L59.8713 11.6562ZM59.9281 12.0559C59.9164 12.1322 59.8852 12.1823 59.8291 12.2239L60.1866 12.7058C60.3727 12.5677 60.486 12.3756 60.5211 12.1472L59.9281 12.0559ZM59.8242 12.2276C59.7735 12.2669 59.7261 12.2787 59.6579 12.2647L59.5374 12.8525C59.7739 12.901 60 12.8503 60.1915 12.7021L59.8242 12.2276ZM59.6507 12.2633C59.5569 12.2465 59.4323 12.1937 59.2745 12.0805L58.9247 12.568C59.1262 12.7125 59.3337 12.816 59.5447 12.8539L59.6507 12.2633ZM59.2771 12.0824L56.1716 9.80307L55.8166 10.2868L58.9221 12.5661L59.2771 12.0824ZM55.8164 9.80323L52.7168 12.0825L53.0723 12.5659L56.1719 10.2866L55.8164 9.80323ZM52.7197 12.0805C52.5618 12.1937 52.4372 12.2465 52.3435 12.2633L52.4495 12.8539C52.6605 12.816 52.8679 12.7125 53.0694 12.568L52.7197 12.0805ZM52.3362 12.2647C52.268 12.2787 52.2207 12.2669 52.17 12.2276L51.8027 12.7021C51.9942 12.8503 52.2203 12.901 52.4568 12.8525L52.3362 12.2647ZM52.5805 11.4711C52.6183 11.5278 52.6761 11.5747 52.7495 11.5973C52.817 11.618 52.8764 11.6118 52.9142 11.6034C52.9831 11.5881 53.0342 11.5535 53.0572 11.5371L52.7084 11.0488C52.7095 11.0481 52.7154 11.0439 52.7254 11.0387C52.7344 11.034 52.7548 11.0242 52.784 11.0177C52.8131 11.0112 52.8649 11.005 52.926 11.0238C52.993 11.0444 53.0458 11.0874 53.0797 11.1383L52.5805 11.4711ZM53.0648 11.5315L55.8831 9.38108L55.5192 8.90407L52.7008 11.0545L53.0648 11.5315ZM55.8874 9.37779C55.9379 9.33778 55.9717 9.33125 55.9941 9.33125V8.73125C55.8135 8.73125 55.6519 8.79894 55.515 8.90736L55.8874 9.37779ZM55.9941 9.33125C56.0231 9.33125 56.0585 9.33962 56.1068 9.37779L56.4792 8.90736C56.3399 8.7971 56.1761 8.73125 55.9941 8.73125V9.33125ZM56.111 9.38108L58.9294 11.5315L59.2933 11.0545L56.4749 8.90407L56.111 9.38108ZM58.937 11.5371C58.9599 11.5535 59.011 11.5881 59.0799 11.6034C59.1178 11.6118 59.1771 11.618 59.2446 11.5973C59.318 11.5747 59.3759 11.5278 59.4137 11.4711L58.9144 11.1383C58.9483 11.0874 59.0011 11.0444 59.0681 11.0238C59.1293 11.005 59.1811 11.0112 59.2101 11.0177C59.2394 11.0242 59.2598 11.034 59.2688 11.0387C59.2788 11.0439 59.2846 11.0481 59.2857 11.0488L58.937 11.5371ZM59.4324 11.4389C59.4673 11.3691 59.467 11.303 59.467 11.2856C59.467 11.257 59.464 11.2303 59.461 11.2095L58.8671 11.2944C58.868 11.301 58.867 11.2967 58.867 11.2856C58.867 11.2799 58.8672 11.2677 58.8697 11.2514C58.872 11.2368 58.8779 11.2062 58.8957 11.1705L59.4324 11.4389ZM59.4474 11.1534L58.2814 7.80182L57.7147 7.99897L58.8807 11.3505L59.4474 11.1534ZM58.2795 7.79668C58.2622 7.74948 58.257 7.71442 58.257 7.68945H57.657C57.657 7.79729 57.6792 7.90286 57.7165 8.0041L58.2795 7.79668ZM58.2565 7.70707C58.2575 7.69087 58.2614 7.68033 58.268 7.67004L57.7633 7.34559C57.6996 7.44467 57.6644 7.55523 57.6575 7.67184L58.2565 7.70707ZM58.2729 7.66216C58.2829 7.64547 58.3023 7.622 58.341 7.5947L57.995 7.10452C57.9008 7.17096 57.8187 7.25297 57.7584 7.35346L58.2729 7.66216ZM58.3385 7.59645L61.2564 5.58082L60.9154 5.08715L57.9975 7.10277L58.3385 7.59645ZM61.2348 5.59446C61.2649 5.57727 61.3245 5.53937 61.3682 5.46955C61.4248 5.379 61.4372 5.26028 61.3836 5.15295L60.8469 5.42127C60.828 5.38347 60.815 5.33495 60.8184 5.28011C60.8218 5.22611 60.8401 5.18244 60.8594 5.15155C60.8932 5.09735 60.9344 5.07508 60.9371 5.07351L61.2348 5.59446ZM61.3998 5.19224C61.3554 5.0588 61.2459 5.00664 61.194 4.98932C61.1407 4.97156 61.0914 4.96953 61.0625 4.96953V5.56953C61.0614 5.56953 61.0561 5.5695 61.0476 5.56849C61.0397 5.56754 61.0241 5.56516 61.0043 5.55853C60.9699 5.54708 60.8712 5.5037 60.8306 5.38198L61.3998 5.19224ZM61.057 4.96958L57.5121 5.03403L57.523 5.63393L61.068 5.56948L61.057 4.96958ZM57.5079 5.03414C57.4298 5.03666 57.3955 5.02074 57.3822 5.01214L57.0553 5.5152C57.1983 5.60816 57.3631 5.63912 57.5273 5.63383L57.5079 5.03414ZM57.3908 5.0179C57.3845 5.0135 57.3592 4.99302 57.3369 4.91636L56.7607 5.08364C56.8088 5.24916 56.8968 5.40447 57.0467 5.50944L57.3908 5.0179ZM57.3361 4.91366L56.3166 1.52108L55.742 1.69376L56.7615 5.08634L57.3361 4.91366ZM56.3203 1.53466C56.3122 1.50221 56.2951 1.44623 56.2546 1.39227C56.2078 1.32986 56.1198 1.26055 55.9941 1.26055V1.86055C55.8841 1.86055 55.8097 1.79905 55.7746 1.75227C55.7459 1.71393 55.7386 1.68138 55.7383 1.68018L56.3203 1.53466ZM55.9941 1.26055C55.8351 1.26055 55.7504 1.37046 55.7236 1.41327C55.6941 1.46049 55.6805 1.50774 55.6738 1.53466L56.2559 1.68018C56.2558 1.68046 56.2547 1.68494 56.252 1.69225C56.2495 1.69895 56.2436 1.71341 56.2324 1.73127C56.2154 1.75844 56.1415 1.86055 55.9941 1.86055V1.26055ZM55.6775 1.52108L54.658 4.91366L55.2326 5.08634L56.2522 1.69376L55.6775 1.52108ZM54.6572 4.91636C54.635 4.99302 54.6096 5.0135 54.6034 5.0179L54.9474 5.50944C55.0974 5.40447 55.1854 5.24916 55.2334 5.08364L54.6572 4.91636ZM54.6119 5.01214C54.5987 5.02074 54.5643 5.03666 54.4862 5.03414L54.4669 5.63383C54.631 5.63912 54.7959 5.60816 54.9389 5.5152L54.6119 5.01214ZM54.482 5.03403L50.9371 4.96958L50.9262 5.56948L54.4711 5.63393L54.482 5.03403ZM50.9316 4.96953C50.9027 4.96953 50.8534 4.97156 50.8002 4.98932C50.7482 5.00664 50.6388 5.0588 50.5943 5.19224L51.1635 5.38198C51.1229 5.5037 51.0243 5.54708 50.9899 5.55853C50.97 5.56516 50.9544 5.56754 50.9465 5.56849C50.9381 5.5695 50.9327 5.56953 50.9316 5.56953V4.96953ZM50.6106 5.15295C50.5569 5.26028 50.5694 5.379 50.626 5.46955C50.6696 5.53937 50.7293 5.57727 50.7594 5.59446L51.057 5.07351C51.0598 5.07508 51.1009 5.09735 51.1348 5.15155C51.1541 5.18244 51.1724 5.22611 51.1758 5.28011C51.1792 5.33495 51.1661 5.38347 51.1472 5.42127L50.6106 5.15295ZM50.7377 5.58082L53.6557 7.59645L53.9967 7.10277L51.0787 5.08715L50.7377 5.58082ZM53.6532 7.5947C53.6918 7.622 53.7113 7.64547 53.7213 7.66216L54.2358 7.35346C54.1755 7.25297 54.0933 7.17096 53.9992 7.10452L53.6532 7.5947ZM53.7262 7.67004C53.7295 7.67525 53.7312 7.67927 53.7312 7.68945H54.3313C54.3313 7.56683 54.2978 7.44975 54.2309 7.34559L53.7262 7.67004ZM53.7318 7.70707C53.7328 7.72519 53.7303 7.75402 53.7146 7.79668L54.2776 8.0041C54.3166 7.89832 54.3375 7.78653 54.3307 7.67184L53.7318 7.70707ZM53.7128 7.80182L52.5467 11.1534L53.1134 11.3505L54.2794 7.99897L53.7128 7.80182ZM52.5416 11.1695C52.5342 11.1957 52.5242 11.2372 52.5242 11.2856C52.5242 11.3286 52.5323 11.4311 52.6179 11.5168L53.0422 11.0926C53.1201 11.1704 53.1242 11.2602 53.1242 11.2856C53.1242 11.3027 53.1224 11.3154 53.1212 11.322C53.12 11.3291 53.1188 11.3334 53.1185 11.3344L52.5416 11.1695Z" fill="#FE8208"/>
<path d="M35.9863 12.4648C35.8652 12.375 35.791 12.2539 35.7637 12.1016C35.7402 11.9492 35.7656 11.7676 35.8398 11.5566L37.0645 7.91211L33.9355 5.66211C33.752 5.5332 33.625 5.40039 33.5547 5.26367C33.4844 5.12695 33.4727 4.98633 33.5195 4.8418C33.5664 4.70117 33.6582 4.5957 33.7949 4.52539C33.9316 4.45508 34.1133 4.42188 34.3398 4.42578L38.1777 4.44922L39.3438 0.787109C39.4141 0.572266 39.502 0.410156 39.6074 0.300781C39.7168 0.191406 39.8457 0.136719 39.9941 0.136719C40.1465 0.136719 40.2754 0.191406 40.3809 0.300781C40.4902 0.410156 40.5801 0.572266 40.6504 0.787109L41.8164 4.44922L45.6543 4.42578C45.8809 4.42188 46.0625 4.45508 46.1992 4.52539C46.3359 4.5957 46.4277 4.70117 46.4746 4.8418C46.5215 4.98633 46.5098 5.12695 46.4395 5.26367C46.3691 5.40039 46.2422 5.5332 46.0586 5.66211L42.9297 7.91211L44.1543 11.5566C44.2285 11.7676 44.252 11.9492 44.2246 12.1016C44.2012 12.2539 44.1289 12.375 44.0078 12.4648C43.8867 12.5586 43.75 12.5898 43.5977 12.5586C43.4453 12.5312 43.2793 12.4531 43.0996 12.3242L39.9941 10.0449L36.8945 12.3242C36.7148 12.4531 36.5488 12.5312 36.3965 12.5586C36.2441 12.5898 36.1074 12.5586 35.9863 12.4648Z" fill="#FE8208"/>
<path d="M19.9863 12.4648C19.8652 12.375 19.791 12.2539 19.7637 12.1016C19.7402 11.9492 19.7656 11.7676 19.8398 11.5566L21.0645 7.91211L17.9355 5.66211C17.752 5.5332 17.625 5.40039 17.5547 5.26367C17.4844 5.12695 17.4727 4.98633 17.5195 4.8418C17.5664 4.70117 17.6582 4.5957 17.7949 4.52539C17.9316 4.45508 18.1133 4.42188 18.3398 4.42578L22.1777 4.44922L23.3438 0.787109C23.4141 0.572266 23.502 0.410156 23.6074 0.300781C23.7168 0.191406 23.8457 0.136719 23.9941 0.136719C24.1465 0.136719 24.2754 0.191406 24.3809 0.300781C24.4902 0.410156 24.5801 0.572266 24.6504 0.787109L25.8164 4.44922L29.6543 4.42578C29.8809 4.42188 30.0625 4.45508 30.1992 4.52539C30.3359 4.5957 30.4277 4.70117 30.4746 4.8418C30.5215 4.98633 30.5098 5.12695 30.4395 5.26367C30.3691 5.40039 30.2422 5.5332 30.0586 5.66211L26.9297 7.91211L28.1543 11.5566C28.2285 11.7676 28.252 11.9492 28.2246 12.1016C28.2012 12.2539 28.1289 12.375 28.0078 12.4648C27.8867 12.5586 27.75 12.5898 27.5977 12.5586C27.4453 12.5312 27.2793 12.4531 27.0996 12.3242L23.9941 10.0449L20.8945 12.3242C20.7148 12.4531 20.5488 12.5312 20.3965 12.5586C20.2441 12.5898 20.1074 12.5586 19.9863 12.4648Z" fill="#FE8208"/>
<path d="M3.98633 12.4648C3.86523 12.375 3.79102 12.2539 3.76367 12.1016C3.74023 11.9492 3.76562 11.7676 3.83984 11.5566L5.06445 7.91211L1.93555 5.66211C1.75195 5.5332 1.625 5.40039 1.55469 5.26367C1.48438 5.12695 1.47266 4.98633 1.51953 4.8418C1.56641 4.70117 1.6582 4.5957 1.79492 4.52539C1.93164 4.45508 2.11328 4.42188 2.33984 4.42578L6.17773 4.44922L7.34375 0.787109C7.41406 0.572266 7.50195 0.410156 7.60742 0.300781C7.7168 0.191406 7.8457 0.136719 7.99414 0.136719C8.14648 0.136719 8.27539 0.191406 8.38086 0.300781C8.49023 0.410156 8.58008 0.572266 8.65039 0.787109L9.81641 4.44922L13.6543 4.42578C13.8809 4.42188 14.0625 4.45508 14.1992 4.52539C14.3359 4.5957 14.4277 4.70117 14.4746 4.8418C14.5215 4.98633 14.5098 5.12695 14.4395 5.26367C14.3691 5.40039 14.2422 5.5332 14.0586 5.66211L10.9297 7.91211L12.1543 11.5566C12.2285 11.7676 12.252 11.9492 12.2246 12.1016C12.2012 12.2539 12.1289 12.375 12.0078 12.4648C11.8867 12.5586 11.75 12.5898 11.5977 12.5586C11.4453 12.5312 11.2793 12.4531 11.0996 12.3242L7.99414 10.0449L4.89453 12.3242C4.71484 12.4531 4.54883 12.5312 4.39648 12.5586C4.24414 12.5898 4.10742 12.5586 3.98633 12.4648Z" fill="#FE8208"/>
</svg>
