<svg width="72" height="14" viewBox="0 0 72 14" fill="none" xmlns="http://www.w3.org/2000/svg">
<path d="M3.98633 12.4648C3.86523 12.375 3.79102 12.2539 3.76367 12.1016C3.74023 11.9492 3.76562 11.7676 3.83984 11.5566L5.06445 7.91211L1.93555 5.66211C1.75195 5.5332 1.625 5.40039 1.55469 5.26367C1.48438 5.12695 1.47266 4.98633 1.51953 4.8418C1.56641 4.70117 1.6582 4.5957 1.79492 4.52539C1.93164 4.45508 2.11328 4.42188 2.33984 4.42578L6.17773 4.44922L7.34375 0.787109C7.41406 0.572266 7.50195 0.410156 7.60742 0.300781C7.7168 0.191406 7.8457 0.136719 7.99414 0.136719C8.14648 0.136719 8.27539 0.191406 8.38086 0.300781C8.49023 0.410156 8.58008 0.572266 8.65039 0.787109L9.81641 4.44922L13.6543 4.42578C13.8809 4.42188 14.0625 4.45508 14.1992 4.52539C14.3359 4.5957 14.4277 4.70117 14.4746 4.8418C14.5215 4.98633 14.5098 5.12695 14.4395 5.26367C14.3691 5.40039 14.2422 5.5332 14.0586 5.66211L10.9297 7.91211L12.1543 11.5566C12.2285 11.7676 12.252 11.9492 12.2246 12.1016C12.2012 12.2539 12.1289 12.375 12.0078 12.4648C11.8867 12.5586 11.75 12.5898 11.5977 12.5586C11.4453 12.5312 11.2793 12.4531 11.0996 12.3242L7.99414 10.0449L4.89453 12.3242C4.71484 12.4531 4.54883 12.5312 4.39648 12.5586C4.24414 12.5898 4.10742 12.5586 3.98633 12.4648Z" fill="#FE8208"/>
<path d="M17.9863 12.4648C17.8652 12.375 17.791 12.2539 17.7637 12.1016C17.7402 11.9492 17.7656 11.7676 17.8398 11.5566L19.0645 7.91211L15.9355 5.66211C15.752 5.5332 15.625 5.40039 15.5547 5.26367C15.4844 5.12695 15.4727 4.98633 15.5195 4.8418C15.5664 4.70117 15.6582 4.5957 15.7949 4.52539C15.9316 4.45508 16.1133 4.42188 16.3398 4.42578L20.1777 4.44922L21.3438 0.787109C21.4141 0.572266 21.502 0.410156 21.6074 0.300781C21.7168 0.191406 21.8457 0.136719 21.9941 0.136719C22.1465 0.136719 22.2754 0.191406 22.3809 0.300781C22.4902 0.410156 22.5801 0.572266 22.6504 0.787109L23.8164 4.44922L27.6543 4.42578C27.8809 4.42188 28.0625 4.45508 28.1992 4.52539C28.3359 4.5957 28.4277 4.70117 28.4746 4.8418C28.5215 4.98633 28.5098 5.12695 28.4395 5.26367C28.3691 5.40039 28.2422 5.5332 28.0586 5.66211L24.9297 7.91211L26.1543 11.5566C26.2285 11.7676 26.252 11.9492 26.2246 12.1016C26.2012 12.2539 26.1289 12.375 26.0078 12.4648C25.8867 12.5586 25.75 12.5898 25.5977 12.5586C25.4453 12.5312 25.2793 12.4531 25.0996 12.3242L21.9941 10.0449L18.8945 12.3242C18.7148 12.4531 18.5488 12.5312 18.3965 12.5586C18.2441 12.5898 18.1074 12.5586 17.9863 12.4648Z" fill="#FE8208"/>
<path d="M31.9863 12.4648C31.8652 12.375 31.791 12.2539 31.7637 12.1016C31.7402 11.9492 31.7656 11.7676 31.8398 11.5566L33.0645 7.91211L29.9355 5.66211C29.752 5.5332 29.625 5.40039 29.5547 5.26367C29.4844 5.12695 29.4727 4.98633 29.5195 4.8418C29.5664 4.70117 29.6582 4.5957 29.7949 4.52539C29.9316 4.45508 30.1133 4.42188 30.3398 4.42578L34.1777 4.44922L35.3438 0.787109C35.4141 0.572266 35.502 0.410156 35.6074 0.300781C35.7168 0.191406 35.8457 0.136719 35.9941 0.136719C36.1465 0.136719 36.2754 0.191406 36.3809 0.300781C36.4902 0.410156 36.5801 0.572266 36.6504 0.787109L37.8164 4.44922L41.6543 4.42578C41.8809 4.42188 42.0625 4.45508 42.1992 4.52539C42.3359 4.5957 42.4277 4.70117 42.4746 4.8418C42.5215 4.98633 42.5098 5.12695 42.4395 5.26367C42.3691 5.40039 42.2422 5.5332 42.0586 5.66211L38.9297 7.91211L40.1543 11.5566C40.2285 11.7676 40.252 11.9492 40.2246 12.1016C40.2012 12.2539 40.1289 12.375 40.0078 12.4648C39.8867 12.5586 39.75 12.5898 39.5977 12.5586C39.4453 12.5312 39.2793 12.4531 39.0996 12.3242L35.9941 10.0449L32.8945 12.3242C32.7148 12.4531 32.5488 12.5312 32.3965 12.5586C32.2441 12.5898 32.1074 12.5586 31.9863 12.4648Z" fill="#FE8208"/>
<path d="M45.9863 12.4648C45.8652 12.375 45.791 12.2539 45.7637 12.1016C45.7402 11.9492 45.7656 11.7676 45.8398 11.5566L47.0645 7.91211L43.9355 5.66211C43.752 5.5332 43.625 5.40039 43.5547 5.26367C43.4844 5.12695 43.4727 4.98633 43.5195 4.8418C43.5664 4.70117 43.6582 4.5957 43.7949 4.52539C43.9316 4.45508 44.1133 4.42188 44.3398 4.42578L48.1777 4.44922L49.3438 0.787109C49.4141 0.572266 49.502 0.410156 49.6074 0.300781C49.7168 0.191406 49.8457 0.136719 49.9941 0.136719C50.1465 0.136719 50.2754 0.191406 50.3809 0.300781C50.4902 0.410156 50.5801 0.572266 50.6504 0.787109L51.8164 4.44922L55.6543 4.42578C55.8809 4.42188 56.0625 4.45508 56.1992 4.52539C56.3359 4.5957 56.4277 4.70117 56.4746 4.8418C56.5215 4.98633 56.5098 5.12695 56.4395 5.26367C56.3691 5.40039 56.2422 5.5332 56.0586 5.66211L52.9297 7.91211L54.1543 11.5566C54.2285 11.7676 54.252 11.9492 54.2246 12.1016C54.2012 12.2539 54.1289 12.375 54.0078 12.4648C53.8867 12.5586 53.75 12.5898 53.5977 12.5586C53.4453 12.5312 53.2793 12.4531 53.0996 12.3242L49.9941 10.0449L46.8945 12.3242C46.7148 12.4531 46.5488 12.5312 46.3965 12.5586C46.2441 12.5898 46.1074 12.5586 45.9863 12.4648Z" fill="#FE8208"/>
<path d="M59.9863 12.4648C59.8652 12.375 59.791 12.2539 59.7637 12.1016C59.7402 11.9492 59.7656 11.7676 59.8398 11.5566L61.0645 7.91211L57.9355 5.66211C57.752 5.5332 57.625 5.40039 57.5547 5.26367C57.4844 5.12695 57.4727 4.98633 57.5195 4.8418C57.5664 4.70117 57.6582 4.5957 57.7949 4.52539C57.9316 4.45508 58.1133 4.42188 58.3398 4.42578L62.1777 4.44922L63.3438 0.787109C63.4141 0.572266 63.502 0.410156 63.6074 0.300781C63.7168 0.191406 63.8457 0.136719 63.9941 0.136719C64.1465 0.136719 64.2754 0.191406 64.3809 0.300781C64.4902 0.410156 64.5801 0.572266 64.6504 0.787109L65.8164 4.44922L69.6543 4.42578C69.8809 4.42188 70.0625 4.45508 70.1992 4.52539C70.3359 4.5957 70.4277 4.70117 70.4746 4.8418C70.5215 4.98633 70.5098 5.12695 70.4395 5.26367C70.3691 5.40039 70.2422 5.5332 70.0586 5.66211L66.9297 7.91211L68.1543 11.5566C68.2285 11.7676 68.252 11.9492 68.2246 12.1016C68.2012 12.2539 68.1289 12.375 68.0078 12.4648C67.8867 12.5586 67.75 12.5898 67.5977 12.5586C67.4453 12.5312 67.2793 12.4531 67.0996 12.3242L63.9941 10.0449L60.8945 12.3242C60.7148 12.4531 60.5488 12.5312 60.3965 12.5586C60.2441 12.5898 60.1074 12.5586 59.9863 12.4648ZM60.8301 11.3047C60.8379 11.3164 60.8555 11.3125 60.8828 11.293L63.7012 9.14258C63.7949 9.06836 63.8926 9.03125 63.9941 9.03125C64.0996 9.03125 64.1992 9.06836 64.293 9.14258L67.1113 11.293C67.1387 11.3125 67.1562 11.3164 67.1641 11.3047C67.168 11.2969 67.168 11.2793 67.1641 11.252L65.998 7.90039C65.9707 7.82617 65.957 7.75586 65.957 7.68945C65.9609 7.62305 65.9805 7.5625 66.0156 7.50781C66.0508 7.44922 66.1016 7.39648 66.168 7.34961L69.0859 5.33398C69.1133 5.31836 69.123 5.30273 69.1152 5.28711C69.1113 5.27539 69.0938 5.26953 69.0625 5.26953L65.5176 5.33398C65.3965 5.33789 65.2969 5.31445 65.2188 5.26367C65.1406 5.20898 65.084 5.12109 65.0488 5L64.0293 1.60742C64.0215 1.57617 64.0098 1.56055 63.9941 1.56055C63.9824 1.56055 63.9727 1.57617 63.9648 1.60742L62.9453 5C62.9102 5.12109 62.8535 5.20898 62.7754 5.26367C62.6973 5.31445 62.5977 5.33789 62.4766 5.33398L58.9316 5.26953C58.9004 5.26953 58.8828 5.27539 58.8789 5.28711C58.8711 5.30273 58.8809 5.31836 58.9082 5.33398L61.8262 7.34961C61.8926 7.39648 61.9434 7.44922 61.9785 7.50781C62.0137 7.5625 62.0312 7.62305 62.0312 7.68945C62.0352 7.75586 62.0234 7.82617 61.9961 7.90039L60.8301 11.252C60.8223 11.2793 60.8223 11.2969 60.8301 11.3047Z" fill="#FE8208"/>
</svg>
